# xmcd
#
# Track frame offsets:
#	150
#	45443
#	92736
#	140469
#
# Disc length: 2534 seconds
#
# Revision: 1
# Processed by: cddbd v1.5.2PL0 Copyright (c) Steve Scherf et al.
# Submitted via: audiograbber 1.83.01
#
DISCID=2b09e404
DTITLE=TOGGO Dreamworks / DRAGONS
DYEAR=2014
DGENRE=Hörspiel
TTITLE0=Dagur der Durchgeknallte_1
TTITLE1=Dagur der Durchgeknallte_2
TTITLE2=Freunde in der Not_1
TTITLE3=Freunde in der Not_2
EXTD=
EXTT0=
EXTT1=
EXTT2=
EXTT3=
PLAYORDER=
